# xmcd
#
# Track frame offsets:
#	150
#	15122
#	35300
#	50232
#
# Disc length: 933 seconds
#
# Revision: 1
# Processed by: cddbd v1.5.1PL0 Copyright (c) Steve Scherf et al.
# Submitted via: CDex 1.50Beta5
#
DISCID=2503a304
DTITLE=沢田知可子 - 少年時代
DYEAR=2002
DGENRE=Pop
TTITLE0=少年時代
TTITLE1=大きな古時計
TTITLE2=少年時代(カラオケ)
TTITLE3=大きな古時計(カラオケ)
EXTD=
EXTT0=
EXTT1=
EXTT2=
EXTT3=
PLAYORDER=
